<?xml version="1.0" encoding="iso-8859-1"?>
<!-- Generator: Adobe Illustrator 19.0.0, SVG Export Plug-In . SVG Version: 6.00 Build 0)  -->
<svg version="1.1" id="Layer_1" xmlns="http://www.w3.org/2000/svg" xmlns:xlink="http://www.w3.org/1999/xlink" x="0px" y="0px"
	 viewBox="0 0 485 485" style="enable-background:new 0 0 485 485;" xml:space="preserve">
<g>
	<path d="M466.006,113.384c17.259-26.428,14.302-62.293-8.884-85.479c-12.878-12.878-29.999-19.97-48.211-19.97
		c-13.436,0-26.271,3.871-37.254,11.066C355.265,6.673,335.418,0,314.544,0c-25.447,0-49.375,9.911-67.368,27.905L27.933,247.148
		c-17.995,17.995-27.905,41.92-27.905,67.369c0,20.878,6.675,40.728,19.007,57.122c-17.243,26.426-14.281,62.277,8.898,85.456
		c12.877,12.878,30,19.97,48.211,19.97c13.435,0,26.271-3.871,37.253-11.066C129.789,478.327,149.636,485,170.51,485
		c25.447,0,49.375-9.911,67.369-27.905l219.243-219.243C491.018,203.957,493.967,150.675,466.006,113.384z M49.145,268.362
		L268.389,49.118C280.718,36.79,297.108,30,314.544,30c12.319,0,24.108,3.404,34.319,9.741L39.769,348.836
		c-6.337-10.212-9.741-22.001-9.741-34.319C30.027,297.082,36.817,280.69,49.145,268.362z M49.145,435.882
		c-14.887-14.887-14.887-39.109,0-53.996L381.912,49.118c7.212-7.212,16.8-11.183,26.999-11.183
		c10.198,0,19.786,3.971,26.998,11.183c14.887,14.887,14.887,39.109,0,53.996L103.142,435.882
		c-7.211,7.212-16.8,11.183-26.999,11.183C65.945,447.065,56.357,443.093,49.145,435.882z M435.909,216.638L216.666,435.882
		C204.337,448.21,187.946,455,170.511,455c-12.319,0-24.108-3.404-34.32-9.741l309.081-309.081
		C460.818,161.337,457.709,194.839,435.909,216.638z"/>
</g>
<g>
</g>
<g>
</g>
<g>
</g>
<g>
</g>
<g>
</g>
<g>
</g>
<g>
</g>
<g>
</g>
<g>
</g>
<g>
</g>
<g>
</g>
<g>
</g>
<g>
</g>
<g>
</g>
<g>
</g>
</svg>
